<svg width="21" height="18" viewBox="0 0 21 18" fill="none" xmlns="http://www.w3.org/2000/svg">
<path d="M12.0488 0.289656C12.9395 -0.0411447 13.8872 0.617542 13.8872 1.56785L13.8866 4.16369C15.6458 4.74165 17.5185 4.95778 19.3906 4.7815C20.281 4.69748 20.9933 5.47366 20.869 6.33059L20.8357 6.49202L18.9845 13.4005C18.6201 14.7603 17.7072 15.9021 16.472 16.5582L16.2024 16.6913L15.2503 17.1267C12.663 18.3102 9.61705 17.5611 7.86953 15.3502L7.6808 15.0985L7.39324 14.6954C5.9804 14.7107 4.56335 14.2409 3.40813 13.286L2.6012 12.6189C1.43868 11.6579 0.765625 10.2283 0.765625 8.71999V1.56785C0.765625 0.617544 1.71318 -0.0410996 2.6041 0.289679C5.65055 1.42142 9.00228 1.42142 12.0488 0.289656ZM13.8867 5.73053L13.8872 8.71999C13.8872 9.32383 13.7793 9.91507 13.5754 10.4687C14.6249 10.929 15.4064 11.8458 15.6996 12.9592C15.8049 13.3588 15.5662 13.768 15.1666 13.8733C14.7761 13.9761 14.3763 13.7505 14.2601 13.3672L14.2525 13.3403C14.0641 12.6246 13.5435 12.0452 12.8493 11.7866C12.619 12.0917 12.3516 12.3709 12.0517 12.6188L11.2446 13.286C10.5859 13.8305 9.84208 14.2173 9.06242 14.4464L8.90031 14.2312C10.1403 15.9748 12.3993 16.6388 14.3722 15.8738L14.6278 15.7659L15.5801 15.3304C16.4653 14.9255 17.1427 14.1779 17.4612 13.2658L17.5391 13.0132L19.341 6.28795L19.2099 6.29815C17.4033 6.42936 15.6012 6.23272 13.8867 5.73053ZM12.3907 1.75763L12.2634 1.80256C9.03149 2.92436 5.51211 2.91229 2.28645 1.76642L2.2621 1.75763V8.71999C2.2621 9.76277 2.71897 10.7521 3.51038 11.4283L3.5547 11.4655L4.36162 12.1326C6.08224 13.5549 8.57058 13.5549 10.2912 12.1327L11.0982 11.4655C11.9168 10.7888 12.3907 9.78208 12.3907 8.71999V1.75763ZM10.3217 8.08918C10.6804 8.29424 10.805 8.75132 10.6 9.11009C9.93354 10.2761 8.69412 11.0118 7.32642 11.0118C5.95876 11.0118 4.71937 10.2761 4.05278 9.11016C3.84769 8.75141 3.97225 8.29432 4.331 8.08922C4.6812 7.889 5.12512 8.00294 5.33686 8.34221L5.35193 8.36743C5.75482 9.07214 6.50146 9.51534 7.32642 9.51534C8.15139 9.51534 8.898 9.07214 9.30075 8.3675C9.50581 8.00873 9.96289 7.88412 10.3217 8.08918Z" fill="rgb(255, 255, 255, 0.5)"/>
</svg>
