<svg width="23" height="22" viewBox="0 0 23 22" fill="none" xmlns="http://www.w3.org/2000/svg">
<path d="M18.375 18.3011V8.1706L11.0417 3.69633L3.70833 8.1706V18.3011H7.375V15.7377C7.375 14.7488 7.76131 13.8005 8.44894 13.1012C9.13658 12.402 10.0692 12.0091 11.0417 12.0091C12.0141 12.0091 12.9468 12.402 13.6344 13.1012C14.322 13.8005 14.7083 14.7488 14.7083 15.7377V18.3011H18.375ZM12.875 20.1654V15.7377C12.875 15.2433 12.6818 14.7691 12.338 14.4195C11.9942 14.0698 11.5279 13.8734 11.0417 13.8734C10.5554 13.8734 10.0891 14.0698 9.7453 14.4195C9.40149 14.7691 9.20833 15.2433 9.20833 15.7377V20.1654H3.70833C3.2221 20.1654 2.75579 19.9689 2.41197 19.6193C2.06815 19.2697 1.875 18.7955 1.875 18.3011V8.1706C1.875 7.84866 1.95698 7.53221 2.11296 7.25206C2.26894 6.97191 2.49361 6.73761 2.76508 6.57198L10.0984 2.09771C10.3833 1.92386 10.7094 1.83203 11.0417 1.83203C11.374 1.83203 11.7 1.92386 11.9849 2.09771L19.3182 6.57198C19.5897 6.73761 19.8144 6.97191 19.9704 7.25206C20.1264 7.53221 20.2083 7.84866 20.2083 8.1706V18.3011C20.2083 18.7955 20.0152 19.2697 19.6714 19.6193C19.3275 19.9689 18.8612 20.1654 18.375 20.1654H12.875Z" fill="rgb(255, 255, 255, 0.5)"/>
</svg>
