<svg width="19" height="20" viewBox="0 0 19 20" fill="none" xmlns="http://www.w3.org/2000/svg">
<path fill-rule="evenodd" clip-rule="evenodd" d="M3.03906 6.66667C2.57883 6.66667 2.20573 7.03976 2.20573 7.5V16.6667C2.20573 17.1269 2.57883 17.5 3.03906 17.5H16.3724C16.8326 17.5 17.2057 17.1269 17.2057 16.6667V7.5C17.2057 7.03976 16.8326 6.66667 16.3724 6.66667H3.03906ZM0.539062 7.5C0.539062 6.11929 1.65835 5 3.03906 5H16.3724C17.7531 5 18.8724 6.11929 18.8724 7.5V16.6667C18.8724 18.0474 17.7531 19.1667 16.3724 19.1667H3.03906C1.65835 19.1667 0.539062 18.0474 0.539062 16.6667V7.5Z" fill="rgb(255, 255, 255, 0.5)"/>
<path fill-rule="evenodd" clip-rule="evenodd" d="M4.95111 1.07611C5.27655 0.750672 5.80418 0.750672 6.12962 1.07611L9.70703 4.65352L13.2844 1.07611C13.6099 0.750672 14.1375 0.750672 14.463 1.07611C14.7884 1.40155 14.7884 1.92918 14.463 2.25462L10.2963 6.42129C9.97085 6.74672 9.44321 6.74672 9.11777 6.42129L4.95111 2.25462C4.62567 1.92918 4.62567 1.40155 4.95111 1.07611Z" fill="rgb(255, 255, 255, 0.5)"/>
<path d="M7.71615 15.1669C7.57448 15.1669 7.42448 15.1336 7.29948 15.0503C7.04115 14.9003 6.88281 14.6253 6.88281 14.3336V9.82526C6.88281 9.52526 7.04115 9.25026 7.29948 9.10859C7.55781 8.95859 7.87448 8.95859 8.13281 9.10859L12.0995 11.3669C12.3578 11.5169 12.5245 11.7919 12.5245 12.0919C12.5245 12.3919 12.3661 12.6669 12.0995 12.8169L8.13281 15.0753C7.99948 15.1253 7.85781 15.1669 7.71615 15.1669ZM8.01615 10.3086V13.8419L11.1161 12.0753L8.01615 10.3086Z" fill="rgb(255, 255, 255, 0.5)"/>
</svg>
