<svg data-name="Layer 1" viewBox="0 0 100 100" xmlns="http://www.w3.org/2000/svg" fill='#ffffff'><path d="M50 5a45 45 0 1 0 45 45A45 45 0 0 0 50 5zm0 88a43 43 0 1 1 30.406-12.595A42.861 42.861 0 0 1 50 93z"/><path d="M56.777 48.88A2.97 2.97 0 0 1 55 52.814v-2.158l-2 2v16.487a1.582 1.582 0 0 1-.567 1.224 2.143 2.143 0 0 1-1.39.509 2.025 2.025 0 0 1-1.273-.444l-7.768-6.778-1.418 1.417 7.898 6.892.034.028a4.03 4.03 0 0 0 2.527.884 4.134 4.134 0 0 0 2.705-1.002A3.594 3.594 0 0 0 55 69.144V54.899a4.972 4.972 0 0 0 3.254-7.496zM62.676 42.981l-1.428 1.428a9.343 9.343 0 0 1-.809 12.303 1 1 0 1 0 1.415 1.414 11.353 11.353 0 0 0 .822-15.145z"/><path d="M66.68 38.976l-1.414 1.415a14.243 14.243 0 0 1-.356 19.792 1 1 0 1 0 1.414 1.414 16.242 16.242 0 0 0 .357-22.62z"/><path d="M70.644 35.012l-1.363 1.364a.951.951 0 0 0 .1.151 19.182 19.182 0 0 1 0 27.128 1 1 0 1 0 1.415 1.414 21.182 21.182 0 0 0 0-29.956.95.95 0 0 0-.152-.1zM26.5 59h7.125l.918.8 1.417-1.417-.96-.838v-15.09l14.77-12.889a2.024 2.024 0 0 1 1.272-.443 2.143 2.143 0 0 1 1.391.51A1.583 1.583 0 0 1 53 30.855v10.487l2-2v-8.487a3.594 3.594 0 0 0-1.252-2.73 4.134 4.134 0 0 0-2.705-1.003 4.03 4.03 0 0 0-2.527.885l-.034.028L33.625 41H26.5a3.35 3.35 0 0 0-2.518 1.18A4.062 4.062 0 0 0 23 44.858v10.286a4.062 4.062 0 0 0 .982 2.676A3.35 3.35 0 0 0 26.5 59zM25 44.857a2.067 2.067 0 0 1 .487-1.36A1.348 1.348 0 0 1 26.5 43H33v14h-6.5a1.348 1.348 0 0 1-1.013-.498A2.067 2.067 0 0 1 25 55.143zM75.293 23.293l-52 52a1 1 0 0 0 1.414 1.414l52-52a1 1 0 0 0-1.414-1.414z"/></svg>